# This file uses centimeters as units for non-parametric coordinates.

mtllib Floor2.mtl
g default
v -0.500000 -0.363748 0.500000
v 0.500000 -0.363748 0.500000
v -0.500000 0.363748 0.500000
v 0.500000 0.363748 0.500000
v -0.500000 0.363748 -0.500000
v 0.500000 0.363748 -0.500000
v -0.500000 -0.363748 -0.500000
v 0.500000 -0.363748 -0.500000
v 0.500000 0.296759 0.500000
v -0.500000 0.296759 0.500000
v -0.500000 0.296759 -0.500000
v 0.500000 0.296759 -0.500000
v 0.500000 -0.296759 0.500000
v -0.500000 -0.296759 0.500000
v -0.500000 -0.296759 -0.500000
v 0.500000 -0.296759 -0.500000
v -0.550000 -0.363748 0.550000
v 0.550000 -0.363748 0.550000
v 0.550000 -0.296759 0.550000
v -0.550000 -0.296759 0.550000
v -0.550000 -0.296759 -0.550000
v 0.550000 -0.296759 -0.550000
v 0.550000 -0.363748 -0.550000
v -0.550000 -0.363748 -0.550000
v 0.550000 0.296759 0.550000
v -0.550000 0.296759 0.550000
v 0.550000 0.363748 0.550000
v -0.550000 0.363748 0.550000
v -0.550000 0.296759 -0.550000
v -0.550000 0.363748 -0.550000
v 0.550000 0.363748 -0.550000
v 0.550000 0.296759 -0.550000
vt 0.375000 0.000000
vt 0.625000 0.000000
vt 0.375000 0.250000
vt 0.625000 0.250000
vt 0.375000 0.500000
vt 0.625000 0.500000
vt 0.375000 0.750000
vt 0.625000 0.750000
vt 0.375000 1.000000
vt 0.625000 1.000000
vt 0.875000 0.000000
vt 0.125000 0.000000
vt 0.125000 0.250000
vt 0.625000 0.226980
vt 0.375000 0.226980
vt 0.125000 0.226980
vt 0.375000 0.523020
vt 0.625000 0.523020
vt 0.875000 0.226980
vt 0.321162 0.000000
vt 0.678838 0.250000
vt 0.678838 0.226980
vt 0.166726 0.000000
vt 0.625000 0.023020
vt 0.375000 0.023020
vt 0.321162 0.023020
vt 0.166726 0.023020
vt 0.125000 0.023020
vt 0.375000 0.726980
vt 0.625000 0.726980
vt 0.875000 0.023020
vt 0.745329 0.250000
vt 0.254671 0.250000
vt 0.254671 0.226980
vt 0.254671 0.023020
vt 0.254671 0.000000
vt 0.745329 0.000000
vt 0.745329 0.023020
vt 0.745329 0.226980
vt 0.234742 0.226980
vt 0.234742 0.250000
vt 0.375000 0.000000
vt 0.625000 0.000000
vt 0.625000 0.023020
vt 0.375000 0.023020
vt 0.375000 0.726980
vt 0.625000 0.726980
vt 0.625000 0.750000
vt 0.375000 0.750000
vt 0.875000 0.000000
vt 0.875000 0.023020
vt 0.125000 0.000000
vt 0.166726 0.000000
vt 0.166726 0.023020
vt 0.125000 0.023020
vt 0.375000 0.226980
vt 0.625000 0.226980
vt 0.625000 0.250000
vt 0.375000 0.250000
vt 0.125000 0.226980
vt 0.125000 0.250000
vt 0.375000 0.500000
vt 0.625000 0.500000
vt 0.625000 0.523020
vt 0.375000 0.523020
vt 0.875000 0.226980
vt 0.875000 0.250000
vt 0.321162 0.000000
vt 0.321162 0.023020
vt 0.678838 0.226980
vt 0.678838 0.250000
vt 0.254671 0.000000
vt 0.254671 0.023020
vt 0.254671 0.226980
vt 0.254671 0.250000
vt 0.745329 0.226980
vt 0.745329 0.250000
vt 0.745329 0.000000
vt 0.745329 0.023020
vt 0.234742 0.226980
vt 0.234742 0.250000
vn 0.000000 0.000000 1.000000
vn 0.000000 0.000000 1.000000
vn 0.000000 0.000000 1.000000
vn 0.000000 0.000000 1.000000
vn 0.000000 0.000000 -1.000000
vn 0.000000 0.000000 -1.000000
vn 0.000000 0.000000 -1.000000
vn 0.000000 0.000000 -1.000000
vn 0.000000 0.000000 1.000000
vn 0.000000 0.000000 1.000000
vn 0.000000 0.000000 1.000000
vn 0.000000 0.000000 1.000000
vn 0.000000 0.000000 -1.000000
vn 0.000000 0.000000 -1.000000
vn 0.000000 0.000000 -1.000000
vn 0.000000 0.000000 -1.000000
vn 0.000000 -1.000000 0.000000
vn 0.000000 -1.000000 0.000000
vn 0.000000 -1.000000 -0.000000
vn 0.000000 -1.000000 -0.000000
vn -1.000000 0.000000 0.000000
vn -1.000000 0.000000 0.000000
vn -1.000000 0.000000 0.000000
vn -1.000000 0.000000 0.000000
vn -1.000000 0.000000 0.000000
vn -1.000000 0.000000 0.000000
vn -1.000000 0.000000 0.000000
vn -1.000000 0.000000 0.000000
vn 0.000000 1.000000 0.000000
vn 0.000000 1.000000 0.000000
vn 0.000000 1.000000 -0.000000
vn 0.000000 1.000000 -0.000000
vn 1.000000 0.000000 0.000000
vn 1.000000 0.000000 0.000000
vn 1.000000 0.000000 0.000000
vn 1.000000 0.000000 0.000000
vn 1.000000 0.000000 0.000000
vn 1.000000 0.000000 0.000000
vn 1.000000 0.000000 0.000000
vn 1.000000 0.000000 0.000000
vn 0.000000 0.000000 1.000000
vn 0.000000 0.000000 1.000000
vn 0.000000 0.000000 1.000000
vn 0.000000 0.000000 1.000000
vn -1.000000 0.000000 0.000000
vn -1.000000 0.000000 0.000000
vn -1.000000 0.000000 0.000000
vn -1.000000 0.000000 0.000000
vn 0.000000 0.000000 -1.000000
vn 0.000000 0.000000 -1.000000
vn 0.000000 0.000000 -1.000000
vn 0.000000 0.000000 -1.000000
vn 1.000000 0.000000 0.000000
vn 1.000000 0.000000 0.000000
vn 1.000000 0.000000 0.000000
vn 1.000000 0.000000 0.000000
vn 0.000000 -1.000000 -0.000000
vn 0.000000 -1.000000 -0.000000
vn 0.000000 1.000000 0.000000
vn 0.000000 1.000000 0.000000
vn 0.000000 1.000000 0.000000
vn 0.000000 1.000000 0.000000
vn 0.000000 1.000000 -0.000000
vn 0.000000 1.000000 -0.000000
vn 0.000000 1.000000 -0.000000
vn 0.000000 1.000000 -0.000000
vn 0.000000 -1.000000 0.000000
vn 0.000000 -1.000000 0.000000
vn 0.000000 -1.000000 -0.000000
vn 0.000000 -1.000000 -0.000000
vn 0.000000 -1.000000 -0.000000
vn 0.000000 -1.000000 -0.000000
vn 0.000000 1.000000 -0.000000
vn 0.000000 1.000000 -0.000000
vn 0.000000 -1.000000 0.000000
vn 0.000000 -1.000000 0.000000
vn 0.000000 1.000000 0.000000
vn 0.000000 1.000000 0.000000
vn 0.000000 -1.000000 0.000000
vn 0.000000 -1.000000 0.000000
s off
g pCube1
usemtl initialShadingGroup
f 17/42/1 18/43/2 19/44/3 20/45/4
f 21/46/5 22/47/6 23/48/7 24/49/8
f 26/56/9 25/57/10 27/58/11 28/59/12
f 30/62/13 31/63/14 32/64/15 29/65/16
s 1
f 7/7/17 8/8/18 2/10/19 1/9/20
s off
f 20/45/21 21/55/22 24/52/23 17/42/24
f 28/59/25 30/61/26 29/60/27 26/56/28
s 2
f 6/6/29 5/5/30 3/3/31 4/4/32
s off
f 25/57/33 32/66/34 31/67/35 27/58/36
f 18/43/37 23/50/38 22/51/39 19/44/40
f 14/25/41 13/24/42 9/14/43 10/15/44
f 11/16/45 15/28/46 14/25/47 10/15/48
f 11/17/49 12/18/50 16/30/51 15/29/52
f 16/31/53 12/19/54 9/14/55 13/24/56
s 1
f 1/1/20 2/2/19 18/43/57 17/42/58
s 3
f 13/24/59 14/25/60 20/45/61 19/44/62
f 15/29/63 16/30/64 22/47/65 21/46/66
s 1
f 8/8/18 7/7/17 24/49/67 23/48/68
s 3
f 19/61/62 22/51/65 16/31/64 13/13/59
s 1
f 17/57/58 24/52/67 7/12/17 1/14/20
s 3
f 20/58/61 14/4/60 15/28/63 21/55/66
s 1
f 18/60/57 2/16/19 8/11/18 23/50/68
s 4
f 10/36/69 9/20/70 25/68/71 26/72/72
s 2
f 4/26/32 3/35/31 28/73/73 27/69/74
s 4
f 26/80/72 29/74/75 11/34/76 10/40/69
s 2
f 5/22/30 6/39/29 31/76/77 30/70/78
s 4
f 12/32/79 11/21/76 29/71/75 32/77/80
s 2
f 27/54/74 31/79/77 6/38/29 4/27/32
f 28/81/73 3/41/31 5/33/30 30/75/78
s 4
f 25/53/71 9/23/70 12/37/79 32/78/80
