# This file uses centimeters as units for non-parametric coordinates.

mtllib Roof1.mtl
g default
v 0.809017 -1.000000 -0.587785
v 0.309017 -1.000000 -0.951057
v -0.309017 -1.000000 -0.951057
v -0.809017 -1.000000 -0.587785
v -1.000000 -1.000000 0.000000
v -0.809017 -1.000000 0.587785
v -0.309017 -1.000000 0.951057
v 0.309017 -1.000000 0.951057
v 0.809017 -1.000000 0.587785
v 1.000000 -1.000000 0.000000
v 0.233966 3.892472 -0.169986
v 0.089367 3.892472 -0.275043
v -0.089367 3.892472 -0.275043
v -0.233966 3.892472 -0.169986
v -0.289198 3.892472 -0.000000
v -0.233966 3.892472 0.169986
v -0.089367 3.892472 0.275043
v 0.089367 3.892472 0.275043
v 0.233966 3.892472 0.169986
v 0.289197 3.892472 -0.000000
v 0.000000 -1.000000 0.000000
v -0.000000 3.892472 -0.000000
v -0.809017 -0.665162 -0.587785
v -0.309017 -0.665162 -0.951057
v 0.309017 -0.665162 -0.951057
v 0.809017 -0.665162 -0.587785
v 1.000000 -0.665162 0.000000
v 0.809017 -0.665162 0.587785
v 0.309017 -0.665162 0.951057
v -0.309017 -0.665162 0.951057
v -0.809017 -0.665162 0.587785
v -1.000000 -0.665162 0.000000
v 1.404473 -1.000000 -1.020409
v 0.536461 -1.000000 -1.651057
v 0.536461 -0.665162 -1.651057
v 1.404473 -0.665162 -1.020409
v -0.536461 -1.000000 -1.651056
v -0.536461 -0.665162 -1.651057
v -1.404473 -1.000000 -1.020409
v -1.404473 -0.665162 -1.020409
v -1.736024 -1.000000 0.000000
v -1.736024 -0.665162 0.000000
v -1.404473 -1.000000 1.020409
v -1.404473 -0.665162 1.020409
v -0.536461 -1.000000 1.651057
v -0.536461 -0.665162 1.651057
v 0.536461 -1.000000 1.651057
v 0.536461 -0.665162 1.651057
v 1.404472 -1.000000 1.020409
v 1.404472 -0.665162 1.020409
v 1.736023 -1.000000 0.000000
v 1.736023 -0.665162 0.000000
vt 0.626409 0.064409
vt 0.548284 0.007647
vt 0.451716 0.007647
vt 0.373591 0.064409
vt 0.343750 0.156250
vt 0.373591 0.248091
vt 0.451716 0.304853
vt 0.548284 0.304853
vt 0.626409 0.248091
vt 0.656250 0.156250
vt 0.375000 0.312500
vt 0.400000 0.312500
vt 0.425000 0.312500
vt 0.450000 0.312500
vt 0.475000 0.312500
vt 0.500000 0.312500
vt 0.525000 0.312500
vt 0.550000 0.312500
vt 0.575000 0.312500
vt 0.600000 0.312500
vt 0.625000 0.312500
vt 0.375000 0.688440
vt 0.400000 0.688440
vt 0.425000 0.688440
vt 0.450000 0.688440
vt 0.475000 0.688440
vt 0.500000 0.688440
vt 0.525000 0.688440
vt 0.550000 0.688440
vt 0.575000 0.688440
vt 0.600000 0.688440
vt 0.625000 0.688440
vt 0.626409 0.751909
vt 0.548284 0.695147
vt 0.451716 0.695147
vt 0.373591 0.751909
vt 0.343750 0.843750
vt 0.373591 0.935591
vt 0.451716 0.992353
vt 0.548284 0.992353
vt 0.626409 0.935591
vt 0.656250 0.843750
vt 0.500000 0.150000
vt 0.500000 0.837500
vt 0.450000 0.375440
vt 0.425000 0.375440
vt 0.400000 0.375440
vt 0.625000 0.375440
vt 0.375000 0.375440
vt 0.600000 0.375440
vt 0.575000 0.375440
vt 0.550000 0.375440
vt 0.525000 0.375440
vt 0.500000 0.375440
vt 0.475000 0.375440
vt 0.375000 0.312500
vt 0.400000 0.312500
vt 0.400000 0.375440
vt 0.375000 0.375440
vt 0.425000 0.312500
vt 0.425000 0.375440
vt 0.450000 0.312500
vt 0.450000 0.375440
vt 0.475000 0.312500
vt 0.475000 0.375440
vt 0.500000 0.312500
vt 0.500000 0.375440
vt 0.525000 0.312500
vt 0.525000 0.375440
vt 0.550000 0.312500
vt 0.550000 0.375440
vt 0.575000 0.312500
vt 0.575000 0.375440
vt 0.600000 0.312500
vt 0.600000 0.375440
vt 0.625000 0.312500
vt 0.625000 0.375440
vn 0.587785 -0.000000 -0.809017
vn 0.587785 -0.000000 -0.809017
vn 0.587785 -0.000000 -0.809017
vn 0.587785 -0.000000 -0.809017
vn -0.000000 -0.000000 -1.000000
vn -0.000000 -0.000000 -1.000000
vn -0.000000 -0.000000 -1.000000
vn -0.000000 -0.000000 -1.000000
vn -0.587785 0.000000 -0.809017
vn -0.587785 0.000000 -0.809017
vn -0.587785 0.000000 -0.809017
vn -0.587785 0.000000 -0.809017
vn -0.951057 0.000001 -0.309017
vn -0.951057 0.000001 -0.309017
vn -0.951057 0.000001 -0.309017
vn -0.951057 0.000001 -0.309017
vn -0.951056 -0.000000 0.309017
vn -0.951057 -0.000000 0.309017
vn -0.951057 -0.000000 0.309017
vn -0.951057 -0.000000 0.309017
vn -0.587785 -0.000000 0.809017
vn -0.587785 -0.000000 0.809017
vn -0.587785 -0.000000 0.809017
vn -0.587785 -0.000000 0.809017
vn -0.000000 0.000000 1.000000
vn -0.000000 0.000000 1.000000
vn -0.000000 0.000000 1.000000
vn -0.000000 0.000000 1.000000
vn 0.587785 0.000000 0.809017
vn 0.587785 0.000000 0.809017
vn 0.587785 0.000000 0.809017
vn 0.587785 0.000000 0.809017
vn 0.951057 0.000000 0.309017
vn 0.951057 0.000000 0.309017
vn 0.951057 0.000000 0.309017
vn 0.951057 0.000000 0.309017
vn 0.951057 -0.000000 -0.309017
vn 0.951057 -0.000000 -0.309017
vn 0.951057 -0.000000 -0.309017
vn 0.951057 -0.000000 -0.309017
vn 0.000000 -1.000000 0.000000
vn 0.000000 -1.000000 0.000000
vn 0.000000 -1.000000 0.000000
vn -0.000000 -1.000000 0.000000
vn -0.000000 -1.000000 0.000000
vn 0.000000 -1.000000 0.000000
vn 0.000000 -1.000000 -0.000000
vn -0.000000 -1.000000 -0.000000
vn -0.000000 -1.000000 -0.000000
vn -0.000000 -1.000000 -0.000000
vn -0.000000 -1.000000 0.000000
vn 0.000000 1.000000 0.000000
vn 0.000000 1.000000 -0.000001
vn 0.000000 1.000000 -0.000000
vn 0.000000 1.000000 -0.000001
vn 0.000000 1.000000 -0.000001
vn 0.000000 1.000000 0.000001
vn 0.000000 1.000000 0.000002
vn 0.000000 1.000000 -0.000001
vn 0.000000 1.000000 -0.000001
vn 0.000000 1.000000 -0.000001
vn 0.000000 1.000000 -0.000001
vn -0.581424 0.146720 -0.800262
vn -0.581424 0.146720 -0.800262
vn -0.581424 0.146720 -0.800262
vn -0.581424 0.146720 -0.800262
vn -0.000000 0.146720 -0.989178
vn -0.000000 0.146720 -0.989178
vn -0.000000 0.146720 -0.989178
vn -0.000000 0.146720 -0.989178
vn 0.581424 0.146720 -0.800262
vn 0.581424 0.146720 -0.800262
vn 0.581424 0.146720 -0.800262
vn 0.581424 0.146720 -0.800262
vn 0.940764 0.146720 -0.305673
vn 0.940764 0.146720 -0.305673
vn 0.940764 0.146720 -0.305673
vn 0.940764 0.146720 -0.305673
vn 0.940764 0.146720 0.305673
vn 0.940764 0.146720 0.305673
vn 0.940764 0.146720 0.305673
vn 0.940764 0.146720 0.305673
vn 0.581424 0.146720 0.800262
vn 0.581424 0.146720 0.800262
vn 0.581424 0.146720 0.800262
vn 0.581424 0.146720 0.800262
vn 0.000000 0.146720 0.989178
vn 0.000000 0.146720 0.989178
vn 0.000000 0.146720 0.989178
vn 0.000000 0.146720 0.989178
vn -0.581424 0.146720 0.800262
vn -0.581424 0.146720 0.800262
vn -0.581424 0.146720 0.800262
vn -0.581424 0.146720 0.800262
vn -0.940764 0.146720 0.305673
vn -0.940764 0.146720 0.305673
vn -0.940764 0.146720 0.305673
vn -0.940764 0.146720 0.305673
vn -0.940764 0.146720 -0.305673
vn -0.940764 0.146720 -0.305673
vn -0.940764 0.146720 -0.305673
vn -0.940764 0.146720 -0.305673
vn 0.000000 -1.000000 0.000000
vn 0.000000 -1.000000 0.000000
vn 0.000000 1.000000 -0.000000
vn 0.000000 1.000000 -0.000000
vn 0.000000 1.000000 -0.000000
vn 0.000000 1.000000 -0.000000
vn -0.000000 -1.000000 0.000000
vn 0.000000 1.000000 -0.000000
vn 0.000000 1.000000 -0.000000
vn -0.000000 -1.000000 0.000000
vn 0.000000 1.000000 -0.000000
vn 0.000000 1.000000 -0.000000
vn 0.000000 -1.000000 0.000000
vn -0.000000 1.000000 0.000000
vn -0.000000 1.000000 0.000000
vn 0.000000 -1.000000 0.000000
vn -0.000000 1.000000 0.000000
vn -0.000000 1.000000 0.000000
vn -0.000000 -1.000000 -0.000000
vn -0.000000 1.000000 0.000000
vn -0.000000 1.000000 0.000000
vn -0.000000 -1.000000 -0.000000
vn 0.000000 1.000000 0.000000
vn 0.000000 1.000000 0.000000
vn -0.000000 -1.000000 -0.000000
vn 0.000000 1.000000 0.000000
vn 0.000000 1.000000 0.000000
vn -0.000000 -1.000000 0.000000
vn 0.000000 1.000000 0.000000
vn 0.000000 1.000000 0.000000
s off
g pCylinder1
usemtl initialShadingGroup
f 33/56/1 34/57/2 35/58/3 36/59/4
f 34/57/5 37/60/6 38/61/7 35/58/8
f 37/60/9 39/62/10 40/63/11 38/61/12
f 39/62/13 41/64/14 42/65/15 40/63/16
f 41/64/17 43/66/18 44/67/19 42/65/20
f 43/66/21 45/68/22 46/69/23 44/67/24
f 45/68/25 47/70/26 48/71/27 46/69/28
f 47/70/29 49/72/30 50/73/31 48/71/32
f 49/72/33 51/74/34 52/75/35 50/73/36
f 51/74/37 33/76/38 36/77/39 52/75/40
s 1
f 2/2/41 1/1/42 21/43/43
f 3/3/44 2/2/41 21/43/43
f 4/4/45 3/3/44 21/43/43
f 5/5/46 4/4/45 21/43/43
f 6/6/47 5/5/46 21/43/43
f 7/7/48 6/6/47 21/43/43
f 8/8/49 7/7/48 21/43/43
f 9/9/50 8/8/49 21/43/43
f 10/10/51 9/9/50 21/43/43
f 1/1/42 10/10/51 21/43/43
s 2
f 11/41/52 12/40/53 22/44/54
f 12/40/53 13/39/55 22/44/54
f 13/39/55 14/38/56 22/44/54
f 14/38/56 15/37/57 22/44/54
f 15/37/57 16/36/58 22/44/54
f 16/36/58 17/35/59 22/44/54
f 17/35/59 18/34/60 22/44/54
f 18/34/60 19/33/61 22/44/54
f 19/33/61 20/42/62 22/44/54
f 20/42/62 11/41/52 22/44/54
s off
f 24/46/63 23/45/64 14/25/65 13/24/66
f 25/47/67 24/46/68 13/24/69 12/23/70
f 26/49/71 25/47/72 12/23/73 11/22/74
f 27/50/75 26/48/76 11/32/77 20/31/78
f 28/51/79 27/50/80 20/31/81 19/30/82
f 29/52/83 28/51/84 19/30/85 18/29/86
f 30/53/87 29/52/88 18/29/89 17/28/90
f 31/54/91 30/53/92 17/28/93 16/27/94
f 32/55/95 31/54/96 16/27/97 15/26/98
f 23/45/99 32/55/100 15/26/101 14/25/102
s 1
f 1/11/42 2/12/41 34/57/103 33/56/104
s 3
f 25/47/105 26/49/106 36/59/107 35/58/108
s 1
f 2/12/41 3/13/44 37/60/109 34/57/103
s 3
f 24/46/110 25/47/105 35/58/108 38/61/111
s 1
f 3/13/44 4/14/45 39/62/112 37/60/109
s 3
f 23/45/113 24/46/110 38/61/111 40/63/114
s 1
f 4/14/45 5/15/46 41/64/115 39/62/112
s 3
f 32/55/116 23/45/113 40/63/114 42/65/117
s 1
f 5/15/46 6/16/47 43/66/118 41/64/115
s 3
f 31/54/119 32/55/116 42/65/117 44/67/120
s 1
f 6/16/47 7/17/48 45/68/121 43/66/118
s 3
f 30/53/122 31/54/119 44/67/120 46/69/123
s 1
f 7/17/48 8/18/49 47/70/124 45/68/121
s 3
f 29/52/125 30/53/122 46/69/123 48/71/126
s 1
f 8/18/49 9/19/50 49/72/127 47/70/124
s 3
f 28/51/128 29/52/125 48/71/126 50/73/129
s 1
f 9/19/50 10/20/51 51/74/130 49/72/127
s 3
f 27/50/131 28/51/128 50/73/129 52/75/132
s 1
f 10/20/51 1/21/42 33/76/104 51/74/130
s 3
f 26/48/106 27/50/131 52/75/132 36/77/107
